<?xml version="1.0" encoding="UTF-8"?>
<svg width="18px" height="21px" viewBox="0 0 18 21" version="1.1" xmlns="http://www.w3.org/2000/svg" xmlns:xlink="http://www.w3.org/1999/xlink">
    <!-- Generator: Sketch 53.2 (72643) - https://sketchapp.com -->
    <title>icon-indicators-hover</title>
    <desc>Created with Sketch.</desc>
    <g id="Page-1" stroke="none" stroke-width="1" fill="none" fill-rule="evenodd">
        <g id="icon-indicators-hover" fill="#F4BB00" fill-rule="nonzero">
            <path d="M0,14.109 L0,16.931 C0.000159127149,16.985199 0.013912208,17.0384922 0.04,17.086 C0.446,18.771 4.083,20.028 8.603,20.028 C13.123,20.028 16.743,18.776 17.163,17.097 C17.1913629,17.0459202 17.2061668,16.9884258 17.206,16.93 L17.2060014,14.109 C15.783,15.109 12.851,15.898 8.606,15.898 C4.361,15.898 1.423,15.109 0,14.109 Z" id="Path"></path>
            <path d="M9.5,11.381 C9.20066667,11.3903333 8.90066667,11.395 8.6,11.395 C8.3,11.395 8,11.395 7.7,11.381 C5.66800194,11.3723387 3.64894185,11.057124 1.711,10.446 C1.1067694,10.2543418 0.531223645,9.98187416 0,9.636 L0,12.871 C0.979,13.893 4.265,14.836 8.6,14.836 C12.935,14.836 16.224,13.893 17.2,12.871 L17.2,9.636 C16.6633383,9.98489943 16.0816599,10.2590856 15.471,10.451 C13.5384471,11.0581692 11.5256673,11.3716653 9.5,11.381 L9.5,11.381 Z" id="Path"></path>
            <path d="M0,5.123 L0,8.358 C0.908,9.306 3.8,10.185 7.669,10.309 L7.789,10.309 L8.127,10.317 C8.28433333,10.317 8.443,10.317 8.603,10.317 C8.763,10.317 8.92166667,10.317 9.079,10.317 L9.417,10.309 L9.537,10.309 C13.41,10.185 16.299,9.309 17.206,8.358 L17.206,5.123 C15.531,6.273 11.99,6.882 8.606,6.882 C5.222,6.882 1.675,6.273 0,5.123 Z" id="Path"></path>
            <path d="M17.16,2.94 C16.774,1.459 13.8,0 8.6,0 C3.4,0 0.449,1.452 0.051,2.929 C0.018806375,2.98031989 0.00117716792,3.03942959 0,3.1 L0,3.894 C0.976,4.91 4.239,5.85 8.6,5.85 C12.961,5.85 16.227,4.909 17.2,3.891 L17.2,3.1 C17.201017,3.04407162 17.1872166,2.98887001 17.16,2.94 Z" id="Path"></path>
        </g>
    </g>
</svg>