<?xml version="1.0" encoding="UTF-8"?>
<svg width="18px" height="18px" viewBox="0 0 18 18" version="1.1" xmlns="http://www.w3.org/2000/svg" xmlns:xlink="http://www.w3.org/1999/xlink">
    <!-- Generator: Sketch 53.2 (72643) - https://sketchapp.com -->
    <title>icon-exit-hover</title>
    <desc>Created with Sketch.</desc>
    <g id="Page-1" stroke="none" stroke-width="1" fill="none" fill-rule="evenodd">
        <g id="icon-exit-hover" fill="#F4BB00" fill-rule="nonzero">
            <path d="M16,0 C17.0932492,0.0268628704 17.9731371,0.906750765 18,2 L18,16 C17.9731371,17.0932492 17.0932492,17.9731371 16,18 L2,18 C1.46795558,18.0148267 0.956190575,17.7954989 0.6,17.4 C0.220761763,17.0323932 0.00465439716,16.5281427 -1.13686838e-13,16 L-1.13686838e-13,12 L2,12 L2,16 L16,16 L16,2 L2,2 L2,6 L-1.13686838e-13,6 L-1.13686838e-13,2 C0.0268628704,0.906750765 0.906750765,0.0268628704 2,2.27373675e-13 L16,0 Z M7.1,12.6 L9.7,10 L0,10 L0,8 L9.7,8 L7.1,5.4 L8.5,4 L13.5,9 L8.5,14 L7.1,12.6 Z" id="Shape"></path>
        </g>
    </g>
</svg>