<svg xmlns="http://www.w3.org/2000/svg" viewBox="0 0 17.207 20.029"><defs><style>.a{fill:#f8f8f8}</style></defs><path class="a" d="M0 14.109v2.822a.324.324 0 0 0 .04.155c.406 1.685 4.043 2.942 8.563 2.942s8.14-1.252 8.56-2.931a.342.342 0 0 0 .043-.167v-2.821c-1.423 1-4.355 1.789-8.6 1.789S1.423 15.109 0 14.109z"/><path class="a" d="M9.5 11.381q-.449.014-.9.014c-.3 0-.6 0-.9-.014a20.2 20.2 0 0 1-5.989-.935A7.033 7.033 0 0 1 0 9.636v3.235c.979 1.022 4.265 1.965 8.6 1.965s7.624-.943 8.6-1.965V9.636a7.05 7.05 0 0 1-1.729.815 20.232 20.232 0 0 1-5.971.93z"/><path class="a" d="M0 5.123v3.235c.908.948 3.8 1.827 7.669 1.951h.12l.338.008h.952l.338-.008h.12c3.873-.124 6.762-1 7.669-1.951V5.123c-1.675 1.15-5.216 1.759-8.6 1.759S1.675 6.273 0 5.123z"/><path class="a" d="M17.16 2.94C16.774 1.459 13.8 0 8.6 0S.449 1.452.051 2.929A.334.334 0 0 0 0 3.1v.794C.976 4.91 4.239 5.85 8.6 5.85s7.627-.941 8.6-1.959V3.1a.317.317 0 0 0-.04-.16z"/></svg>