<svg xmlns="http://www.w3.org/2000/svg" viewBox="0 0 27.429 32"><path d="M13.714 32a13.709 13.709 0 0 1-9.752-3.962A12.873 12.873 0 0 1 0 18.286a13.71 13.71 0 0 1 9.752 3.962A12.874 12.874 0 0 1 13.714 32zM3.962 14.171a3.425 3.425 0 0 1 2.286-3.352 3.562 3.562 0 0 1-2.286-3.352 3.309 3.309 0 0 1 1.219-2.743 4.1 4.1 0 0 1 2.743-1.219 4.045 4.045 0 0 1 2.133.762v-.3a3.672 3.672 0 0 1 1.067-2.743A3.816 3.816 0 0 1 13.867.005a3.309 3.309 0 0 1 2.743 1.219 3.912 3.912 0 0 1 1.067 2.743v.3a4.045 4.045 0 0 1 2.133-.762 3.309 3.309 0 0 1 2.743 1.219 4.1 4.1 0 0 1 1.219 2.743 3.425 3.425 0 0 1-2.286 3.352 3.562 3.562 0 0 1 2.286 3.352 3.309 3.309 0 0 1-1.219 2.743 3.911 3.911 0 0 1-2.743 1.067 3.5 3.5 0 0 1-2.133-.61v.3a3.811 3.811 0 1 1-7.619 0v-.3a3.5 3.5 0 0 1-2.133.61 3.672 3.672 0 0 1-2.743-1.067 3.816 3.816 0 0 1-1.22-2.743zm12.5-6.248a3.816 3.816 0 0 0-2.743-1.219 3.309 3.309 0 0 0-2.743 1.219 3.911 3.911 0 0 0-1.067 2.743 3.811 3.811 0 1 0 6.552-2.743zM13.714 32a13.71 13.71 0 0 1 3.962-9.753 12.874 12.874 0 0 1 9.752-3.962 13.709 13.709 0 0 1-3.962 9.752A12.873 12.873 0 0 1 13.714 32z" fill="#4a0089"/></svg>